<svg width="42" height="34" viewBox="0 0 42 34" fill="none" xmlns="http://www.w3.org/2000/svg">
<path d="M27.0259 26.5299H24.4688V28.6187C24.4688 29.7745 25.611 30.7075 27.0259 30.7075C28.4408 30.7075 29.583 29.7745 29.583 28.6187C29.583 27.4629 28.4408 26.5299 27.0259 26.5299Z" stroke="white" stroke-width="2" stroke-linecap="round" stroke-linejoin="round"/>
<path d="M16.7976 19.5673C18.2125 19.5673 19.3547 20.5003 19.3547 21.6561V28.6187C19.3547 29.7745 18.2125 30.7075 16.7976 30.7075C15.3827 30.7075 14.2405 29.7745 14.2405 28.6187V21.6561C14.2405 20.5003 15.3827 19.5673 16.7976 19.5673Z" stroke="white" stroke-width="2" stroke-linecap="round" stroke-linejoin="round"/>
<path d="M6.56925 19.5673H9.12633V21.6561C9.12633 22.8119 7.98417 23.7449 6.56925 23.7449C5.15434 23.7449 4.01218 22.8119 4.01218 21.6561C4.01218 20.5003 5.15434 19.5673 6.56925 19.5673Z" stroke="white" stroke-width="2" stroke-linecap="round" stroke-linejoin="round"/>
<path d="M24.4688 20.2636C24.4688 19.1078 25.611 18.1748 27.0259 18.1748H35.5495C36.9644 18.1748 38.1066 19.1078 38.1066 20.2636C38.1066 21.4194 36.9644 22.3523 35.5495 22.3523H27.0259C25.611 22.3523 24.4688 21.4194 24.4688 20.2636Z" stroke="white" stroke-width="2" stroke-linecap="round" stroke-linejoin="round"/>
<path d="M17.6499 13.3009C17.6499 12.1451 16.5078 11.2121 15.0928 11.2121H6.56925C5.15434 11.2121 4.01218 12.1451 4.01218 13.3009C4.01218 14.4567 5.15434 15.3897 6.56925 15.3897H15.0928C16.5078 15.3897 17.6499 14.4567 17.6499 13.3009Z" stroke="white" stroke-width="2" stroke-linecap="round" stroke-linejoin="round"/>
<path d="M25.3212 13.9972C23.9063 13.9972 22.7642 13.0642 22.7642 11.9084V4.94576C22.7642 3.78996 23.9063 2.85696 25.3212 2.85696C26.7362 2.85696 27.8783 3.78996 27.8783 4.94576V11.9084C27.8783 13.0642 26.7362 13.9972 25.3212 13.9972Z" stroke="white" stroke-width="2" stroke-linecap="round" stroke-linejoin="round"/>
<path d="M35.5495 13.9972H32.9924V11.9084C32.9924 10.7526 34.1346 9.81958 35.5495 9.81958C36.9644 9.81958 38.1066 10.7526 38.1066 11.9084C38.1066 13.0642 36.9644 13.9972 35.5495 13.9972Z" stroke="white" stroke-width="2" stroke-linecap="round" stroke-linejoin="round"/>
<path d="M15.0928 7.03452H17.6499V4.94573C17.6499 3.78993 16.5078 2.85693 15.0928 2.85693C13.6779 2.85693 12.5358 3.78993 12.5358 4.94573C12.5358 6.10153 13.6779 7.03452 15.0928 7.03452Z" stroke="white" stroke-width="2" stroke-linecap="round" stroke-linejoin="round"/>
</svg>
