<svg width="41" height="34" viewBox="0 0 41 34" fill="none" xmlns="http://www.w3.org/2000/svg">
<path d="M26.4232 26.5299H23.8661V28.6187C23.8661 29.7745 25.0083 30.7075 26.4232 30.7075C27.8381 30.7075 28.9802 29.7745 28.9802 28.6187C28.9802 27.4629 27.8381 26.5299 26.4232 26.5299Z" stroke="white" stroke-width="2" stroke-linecap="round" stroke-linejoin="round"/>
<path d="M16.1948 19.5673C17.6098 19.5673 18.7519 20.5003 18.7519 21.6561V28.6187C18.7519 29.7745 17.6098 30.7075 16.1948 30.7075C14.7799 30.7075 13.6378 29.7745 13.6378 28.6187V21.6561C13.6378 20.5003 14.7799 19.5673 16.1948 19.5673Z" stroke="white" stroke-width="2" stroke-linecap="round" stroke-linejoin="round"/>
<path d="M5.9665 19.5673H8.52358V21.6561C8.52358 22.8119 7.38142 23.7449 5.9665 23.7449C4.55159 23.7449 3.40942 22.8119 3.40942 21.6561C3.40942 20.5003 4.55159 19.5673 5.9665 19.5673Z" stroke="white" stroke-width="2" stroke-linecap="round" stroke-linejoin="round"/>
<path d="M23.8661 20.2636C23.8661 19.1078 25.0083 18.1748 26.4232 18.1748H34.9468C36.3617 18.1748 37.5038 19.1078 37.5038 20.2636C37.5038 21.4194 36.3617 22.3523 34.9468 22.3523H26.4232C25.0083 22.3523 23.8661 21.4194 23.8661 20.2636Z" stroke="white" stroke-width="2" stroke-linecap="round" stroke-linejoin="round"/>
<path d="M17.0472 13.3009C17.0472 12.1451 15.905 11.2121 14.4901 11.2121H5.9665C4.55159 11.2121 3.40942 12.1451 3.40942 13.3009C3.40942 14.4567 4.55159 15.3897 5.9665 15.3897H14.4901C15.905 15.3897 17.0472 14.4567 17.0472 13.3009Z" stroke="white" stroke-width="2" stroke-linecap="round" stroke-linejoin="round"/>
<path d="M24.7185 13.9972C23.3035 13.9972 22.1614 13.0642 22.1614 11.9084V4.94576C22.1614 3.78996 23.3035 2.85696 24.7185 2.85696C26.1334 2.85696 27.2755 3.78996 27.2755 4.94576V11.9084C27.2755 13.0642 26.1334 13.9972 24.7185 13.9972Z" stroke="white" stroke-width="2" stroke-linecap="round" stroke-linejoin="round"/>
<path d="M34.9467 13.9972H32.3896V11.9084C32.3896 10.7526 33.5318 9.81958 34.9467 9.81958C36.3616 9.81958 37.5038 10.7526 37.5038 11.9084C37.5038 13.0642 36.3616 13.9972 34.9467 13.9972Z" stroke="white" stroke-width="2" stroke-linecap="round" stroke-linejoin="round"/>
<path d="M14.4901 7.03452H17.0472V4.94573C17.0472 3.78993 15.905 2.85693 14.4901 2.85693C13.0752 2.85693 11.933 3.78993 11.933 4.94573C11.933 6.10153 13.0752 7.03452 14.4901 7.03452Z" stroke="white" stroke-width="2" stroke-linecap="round" stroke-linejoin="round"/>
</svg>
