<svg width="41" height="34" viewBox="0 0 41 34" fill="none" xmlns="http://www.w3.org/2000/svg">
<path d="M26.423 26.53H23.866V28.6188C23.866 29.7746 25.0081 30.7076 26.423 30.7076C27.838 30.7076 28.9801 29.7746 28.9801 28.6188C28.9801 27.463 27.838 26.53 26.423 26.53Z" stroke="white" stroke-width="2" stroke-linecap="round" stroke-linejoin="round"/>
<path d="M16.1948 19.5673C17.6097 19.5673 18.7519 20.5003 18.7519 21.6561V28.6188C18.7519 29.7746 17.6097 30.7076 16.1948 30.7076C14.7799 30.7076 13.6377 29.7746 13.6377 28.6188V21.6561C13.6377 20.5003 14.7799 19.5673 16.1948 19.5673Z" stroke="white" stroke-width="2" stroke-linecap="round" stroke-linejoin="round"/>
<path d="M5.9665 19.5673H8.52358V21.6561C8.52358 22.8119 7.38142 23.7449 5.9665 23.7449C4.55159 23.7449 3.40942 22.8119 3.40942 21.6561C3.40942 20.5003 4.55159 19.5673 5.9665 19.5673Z" stroke="white" stroke-width="2" stroke-linecap="round" stroke-linejoin="round"/>
<path d="M23.866 20.2636C23.866 19.1078 25.0081 18.1748 26.423 18.1748H34.9466C36.3616 18.1748 37.5037 19.1078 37.5037 20.2636C37.5037 21.4194 36.3616 22.3524 34.9466 22.3524H26.423C25.0081 22.3524 23.866 21.4194 23.866 20.2636Z" stroke="white" stroke-width="2" stroke-linecap="round" stroke-linejoin="round"/>
<path d="M17.0472 13.301C17.0472 12.1452 15.905 11.2122 14.4901 11.2122H5.9665C4.55159 11.2122 3.40942 12.1452 3.40942 13.301C3.40942 14.4568 4.55159 15.3897 5.9665 15.3897H14.4901C15.905 15.3897 17.0472 14.4568 17.0472 13.301Z" stroke="white" stroke-width="2" stroke-linecap="round" stroke-linejoin="round"/>
<path d="M24.7185 13.9972C23.3035 13.9972 22.1614 13.0642 22.1614 11.9084V4.94579C22.1614 3.78999 23.3035 2.85699 24.7185 2.85699C26.1334 2.85699 27.2755 3.78999 27.2755 4.94579V11.9084C27.2755 13.0642 26.1334 13.9972 24.7185 13.9972Z" stroke="white" stroke-width="2" stroke-linecap="round" stroke-linejoin="round"/>
<path d="M34.9467 13.9972H32.3896V11.9084C32.3896 10.7526 33.5318 9.81958 34.9467 9.81958C36.3616 9.81958 37.5038 10.7526 37.5038 11.9084C37.5038 13.0642 36.3616 13.9972 34.9467 13.9972Z" stroke="white" stroke-width="2" stroke-linecap="round" stroke-linejoin="round"/>
<path d="M14.4902 7.03452H17.0473V4.94573C17.0473 3.78993 15.9051 2.85693 14.4902 2.85693C13.0753 2.85693 11.9331 3.78993 11.9331 4.94573C11.9331 6.10153 13.0753 7.03452 14.4902 7.03452Z" stroke="white" stroke-width="2" stroke-linecap="round" stroke-linejoin="round"/>
</svg>
