<svg width="16" height="18" viewBox="0 0 16 18" fill="none" xmlns="http://www.w3.org/2000/svg">
<path fill-rule="evenodd" clip-rule="evenodd" d="M0.67749 5.39787C0.67749 4.98014 1.02216 4.64153 1.44734 4.64153H12.6102C13.0354 4.64153 13.38 4.98014 13.38 5.39787V14.8522C13.38 16.0009 12.4322 16.9321 11.2629 16.9321H2.79458C1.62534 16.9321 0.67749 16.0009 0.67749 14.8522V5.39787ZM9.72325 7.66691C9.40437 7.66691 9.14586 7.41293 9.14586 7.09965V3.50701C9.14586 2.35828 8.19802 1.42706 7.02877 1.42706C5.85952 1.42706 4.91167 2.35828 4.91167 3.50701V7.09965C4.91167 7.41293 4.65316 7.66691 4.33429 7.66691C4.01541 7.66691 3.7569 7.41293 3.7569 7.09965V3.50701C3.7569 1.73171 5.22177 0.292542 7.02877 0.292542C8.83576 0.292542 10.3006 1.73171 10.3006 3.50701V7.09965C10.3006 7.41293 10.0421 7.66691 9.72325 7.66691Z" fill="#98C644"/>
<path d="M12.9218 12.9204C12.9218 12.7727 12.7988 12.653 12.647 12.653C12.4952 12.653 12.3722 12.7727 12.3722 12.9204V14.525H10.7233C10.5715 14.525 10.4485 14.6447 10.4485 14.7924C10.4485 14.9401 10.5715 15.0598 10.7233 15.0598H12.3722V16.6643C12.3722 16.812 12.4952 16.9318 12.647 16.9318C12.7988 16.9318 12.9218 16.812 12.9218 16.6643V15.0598H14.5707C14.7225 15.0598 14.8455 14.9401 14.8455 14.7924C14.8455 14.6447 14.7225 14.525 14.5707 14.525H12.9218V12.9204Z" fill="#C6C6C6" stroke="#6C8152" stroke-linecap="round"/>
</svg>
