<svg width="16" height="18" viewBox="0 0 16 18" fill="none" xmlns="http://www.w3.org/2000/svg">
<path fill-rule="evenodd" clip-rule="evenodd" d="M0.621094 5.39791C0.621094 4.98018 0.965768 4.64156 1.39095 4.64156H12.5538C12.979 4.64156 13.3236 4.98018 13.3236 5.39791V14.8522C13.3236 16.001 12.3758 16.9322 11.2066 16.9322H2.73819C1.56895 16.9322 0.621094 16.001 0.621094 14.8522V5.39791ZM9.66685 7.66694C9.34798 7.66694 9.08946 7.41296 9.08946 7.09968V3.50704C9.08946 2.35831 8.14162 1.42709 6.97237 1.42709C5.80312 1.42709 4.85528 2.35831 4.85528 3.50704V7.09968C4.85528 7.41296 4.59676 7.66694 4.27789 7.66694C3.95902 7.66694 3.7005 7.41296 3.7005 7.09968V3.50704C3.7005 1.73174 5.16537 0.292572 6.97237 0.292572C8.77936 0.292572 10.2442 1.73174 10.2442 3.50704V7.09968C10.2442 7.41296 9.98572 7.66694 9.66685 7.66694Z" fill="#98C644"/>
<path d="M12.8657 12.9205C12.8657 12.7728 12.7426 12.653 12.5909 12.653C12.4391 12.653 12.316 12.7728 12.316 12.9205V14.525H10.6671C10.5154 14.525 10.3923 14.6447 10.3923 14.7924C10.3923 14.9401 10.5154 15.0598 10.6671 15.0598H12.316V16.6644C12.316 16.8121 12.4391 16.9318 12.5909 16.9318C12.7426 16.9318 12.8657 16.8121 12.8657 16.6644V15.0598H14.5146C14.6663 15.0598 14.7894 14.9401 14.7894 14.7924C14.7894 14.6447 14.6663 14.525 14.5146 14.525H12.8657V12.9205Z" fill="#C6C6C6" stroke="#6C8152" stroke-linecap="round"/>
</svg>
