<svg width="16" height="18" viewBox="0 0 16 18" fill="none" xmlns="http://www.w3.org/2000/svg">
<path fill-rule="evenodd" clip-rule="evenodd" d="M0.67749 5.39791C0.67749 4.98018 1.02216 4.64156 1.44734 4.64156H12.6102C13.0354 4.64156 13.38 4.98018 13.38 5.39791V14.8522C13.38 16.001 12.4322 16.9322 11.2629 16.9322H2.79458C1.62534 16.9322 0.67749 16.001 0.67749 14.8522V5.39791ZM9.72325 7.66694C9.40437 7.66694 9.14586 7.41296 9.14586 7.09968V3.50704C9.14586 2.35831 8.19802 1.42709 7.02877 1.42709C5.85952 1.42709 4.91167 2.35831 4.91167 3.50704V7.09968C4.91167 7.41296 4.65316 7.66694 4.33429 7.66694C4.01541 7.66694 3.7569 7.41296 3.7569 7.09968V3.50704C3.7569 1.73174 5.22177 0.292572 7.02877 0.292572C8.83576 0.292572 10.3006 1.73174 10.3006 3.50704V7.09968C10.3006 7.41296 10.0421 7.66694 9.72325 7.66694Z" fill="#98C644"/>
<path d="M12.9218 12.9205C12.9218 12.7728 12.7988 12.653 12.647 12.653C12.4952 12.653 12.3722 12.7728 12.3722 12.9205V14.525H10.7233C10.5715 14.525 10.4485 14.6447 10.4485 14.7924C10.4485 14.9401 10.5715 15.0598 10.7233 15.0598H12.3722V16.6644C12.3722 16.8121 12.4952 16.9318 12.647 16.9318C12.7988 16.9318 12.9218 16.8121 12.9218 16.6644V15.0598H14.5707C14.7225 15.0598 14.8455 14.9401 14.8455 14.7924C14.8455 14.6447 14.7225 14.525 14.5707 14.525H12.9218V12.9205Z" fill="#C6C6C6" stroke="#6C8152" stroke-linecap="round"/>
</svg>
