<svg width="15" height="18" viewBox="0 0 15 18" fill="none" xmlns="http://www.w3.org/2000/svg">
<path fill-rule="evenodd" clip-rule="evenodd" d="M0.14917 5.84249C0.14917 5.42476 0.493844 5.08614 0.919022 5.08614H12.0819C12.5071 5.08614 12.8517 5.42476 12.8517 5.84249V15.2968C12.8517 16.4455 11.9039 17.3768 10.7346 17.3768H2.26626C1.09702 17.3768 0.14917 16.4455 0.14917 15.2968L0.14917 5.84249ZM9.19493 8.11152C8.87605 8.11152 8.61754 7.85754 8.61754 7.54426V3.95162C8.61754 2.80289 7.6697 1.87167 6.50045 1.87167C5.33119 1.87167 4.38335 2.80289 4.38335 3.95162V7.54426C4.38335 7.85754 4.12484 8.11152 3.80596 8.11152C3.48709 8.11152 3.22858 7.85754 3.22858 7.54426V3.95162C3.22858 2.17632 4.69345 0.737152 6.50045 0.737152C8.30744 0.737152 9.77231 2.17632 9.77231 3.95162V7.54426C9.77231 7.85754 9.5138 8.11152 9.19493 8.11152Z" fill="#98C644"/>
<path d="M12.3937 13.3651C12.3937 13.2174 12.2707 13.0977 12.1189 13.0977C11.9672 13.0977 11.8441 13.2174 11.8441 13.3651V14.9697H10.1952C10.0434 14.9697 9.92041 15.0894 9.92041 15.2371C9.92041 15.3848 10.0434 15.5045 10.1952 15.5045H11.8441V17.1091C11.8441 17.2567 11.9672 17.3765 12.1189 17.3765C12.2707 17.3765 12.3937 17.2567 12.3937 17.1091V15.5045H14.0426C14.1944 15.5045 14.3174 15.3848 14.3174 15.2371C14.3174 15.0894 14.1944 14.9697 14.0426 14.9697H12.3937V13.3651Z" fill="#C6C6C6" stroke="#6C8152" stroke-linecap="round"/>
</svg>
