<svg width="16" height="18" viewBox="0 0 16 18" fill="none" xmlns="http://www.w3.org/2000/svg">
<path fill-rule="evenodd" clip-rule="evenodd" d="M0.621094 5.39787C0.621094 4.98014 0.965768 4.64153 1.39095 4.64153H12.5538C12.979 4.64153 13.3236 4.98014 13.3236 5.39787V14.8522C13.3236 16.0009 12.3758 16.9321 11.2066 16.9321H2.73819C1.56895 16.9321 0.621094 16.0009 0.621094 14.8522V5.39787ZM9.66685 7.66691C9.34798 7.66691 9.08946 7.41293 9.08946 7.09965V3.50701C9.08946 2.35828 8.14162 1.42706 6.97237 1.42706C5.80312 1.42706 4.85528 2.35828 4.85528 3.50701V7.09965C4.85528 7.41293 4.59676 7.66691 4.27789 7.66691C3.95902 7.66691 3.7005 7.41293 3.7005 7.09965V3.50701C3.7005 1.73171 5.16537 0.292542 6.97237 0.292542C8.77936 0.292542 10.2442 1.73171 10.2442 3.50701V7.09965C10.2442 7.41293 9.98572 7.66691 9.66685 7.66691Z" fill="#98C644"/>
<path d="M12.8657 12.9204C12.8657 12.7727 12.7426 12.653 12.5909 12.653C12.4391 12.653 12.316 12.7727 12.316 12.9204V14.525H10.6671C10.5154 14.525 10.3923 14.6447 10.3923 14.7924C10.3923 14.9401 10.5154 15.0598 10.6671 15.0598H12.316V16.6643C12.316 16.812 12.4391 16.9318 12.5909 16.9318C12.7426 16.9318 12.8657 16.812 12.8657 16.6643V15.0598H14.5146C14.6663 15.0598 14.7894 14.9401 14.7894 14.7924C14.7894 14.6447 14.6663 14.525 14.5146 14.525H12.8657V12.9204Z" fill="#C6C6C6" stroke="#6C8152" stroke-linecap="round"/>
</svg>
