<svg width="210" height="282" viewBox="0 0 210 282" fill="none" xmlns="http://www.w3.org/2000/svg">
<rect y="0.827179" width="209.887" height="281.006" fill="#6C8152"/>
<ellipse cx="189.422" cy="260.345" rx="13.3591" ry="13.2396" fill="white"/>
<path fill-rule="evenodd" clip-rule="evenodd" d="M183.264 256.837C183.264 256.419 183.609 256.081 184.034 256.081H195.197C195.622 256.081 195.967 256.419 195.967 256.837V266.291C195.967 267.44 195.019 268.371 193.85 268.371H185.381C184.212 268.371 183.264 267.44 183.264 266.291V256.837ZM192.31 259.106C191.991 259.106 191.733 258.852 191.733 258.539V254.946C191.733 253.797 190.785 252.866 189.616 252.866C188.446 252.866 187.499 253.797 187.499 254.946V258.539C187.499 258.852 187.24 259.106 186.921 259.106C186.602 259.106 186.344 258.852 186.344 258.539V254.946C186.344 253.171 187.809 251.732 189.616 251.732C191.423 251.732 192.888 253.171 192.888 254.946V258.539C192.888 258.852 192.629 259.106 192.31 259.106Z" fill="#98C644"/>
<path d="M195.509 264.36C195.509 264.212 195.386 264.092 195.234 264.092C195.082 264.092 194.959 264.212 194.959 264.36V265.964H193.31C193.159 265.964 193.036 266.084 193.036 266.232C193.036 266.379 193.159 266.499 193.31 266.499H194.959V268.104C194.959 268.251 195.082 268.371 195.234 268.371C195.386 268.371 195.509 268.251 195.509 268.104V266.499H197.158C197.31 266.499 197.433 266.379 197.433 266.232C197.433 266.084 197.31 265.964 197.158 265.964H195.509V264.36Z" fill="#C6C6C6" stroke="#6C8152" stroke-linecap="round"/>
</svg>
