<svg width="15" height="18" viewBox="0 0 15 18" fill="none" xmlns="http://www.w3.org/2000/svg">
<path fill-rule="evenodd" clip-rule="evenodd" d="M0.0927734 5.39496C0.0927734 4.97723 0.437448 4.63861 0.862625 4.63861H12.0255C12.4507 4.63861 12.7953 4.97723 12.7953 5.39496V14.8493C12.7953 15.998 11.8475 16.9292 10.6782 16.9292H2.20987C1.04063 16.9292 0.0927734 15.998 0.0927734 14.8493L0.0927734 5.39496ZM9.13853 7.664C8.81966 7.664 8.56114 7.41002 8.56114 7.09674V3.5041C8.56114 2.35537 7.6133 1.42415 6.44405 1.42415C5.2748 1.42415 4.32696 2.35537 4.32696 3.5041V7.09674C4.32696 7.41002 4.06844 7.664 3.74957 7.664C3.4307 7.664 3.17218 7.41002 3.17218 7.09674V3.5041C3.17218 1.72879 4.63705 0.289627 6.44405 0.289627C8.25104 0.289627 9.71592 1.72879 9.71592 3.5041V7.09674C9.71592 7.41002 9.4574 7.664 9.13853 7.664Z" fill="#98C644"/>
<path d="M12.3372 12.9175C12.3372 12.7698 12.2142 12.6501 12.0624 12.6501C11.9106 12.6501 11.7876 12.7698 11.7876 12.9175V14.522H10.1387C9.98693 14.522 9.86389 14.6418 9.86389 14.7895C9.86389 14.9372 9.98693 15.0569 10.1387 15.0569H11.7876V16.6614C11.7876 16.8091 11.9106 16.9288 12.0624 16.9288C12.2142 16.9288 12.3372 16.8091 12.3372 16.6614V15.0569H13.9861C14.1379 15.0569 14.2609 14.9372 14.2609 14.7895C14.2609 14.6418 14.1379 14.522 13.9861 14.522H12.3372V12.9175Z" fill="#C6C6C6" stroke="#6C8152" stroke-linecap="round"/>
</svg>
