<svg width="20" height="21" viewBox="0 0 20 21" fill="none" xmlns="http://www.w3.org/2000/svg">
<path d="M9.46806 8.6338C9.85599 9.17433 10.2516 9.65048 10.7571 10.1025C11.1296 10.4356 10.7593 10.1166 10.6263 9.97379C9.54892 8.81771 8.90328 7.26994 8.19207 5.92457C7.84517 5.26837 7.53181 4.5994 7.1909 3.94092C7.10153 3.7683 6.8899 3.24747 6.8899 3.4377C6.8899 3.77224 8.09559 4.57403 8.31639 4.78354C9.14549 5.57022 9.91761 6.40476 10.7375 7.19434C10.7657 7.22147 10.074 6.60376 9.87376 6.44535C9.01201 5.76367 10.2005 6.59085 10.4627 6.80814C11.5074 7.67401 12.5265 8.56305 13.5578 9.44131C13.601 9.4781 14.534 10.1557 14.0616 9.94453C13.6432 9.75745 14.1549 10.1012 14.2906 10.2605C14.4247 10.4178 14.9025 10.7888 14.6898 10.7345C14.0317 10.5663 13.3007 9.53349 12.5566 9.62855C12.4345 9.64416 12.7252 9.79029 12.8183 9.86261C13.163 10.1301 13.4775 10.4286 13.7999 10.7169C14.1402 11.0212 15.2601 11.8177 14.8338 11.6181C13.9445 11.2015 13.1801 10.5386 12.3668 10.0206C11.8334 9.68078 10.6144 9.21693 10.2664 8.69817C10.1209 8.48138 10.8017 8.8666 11.0516 8.98489C11.8474 9.36166 12.5898 9.81382 13.3418 10.2547C14.1696 10.7399 16.5944 12.2663 15.8284 11.7058C14.8534 10.9925 13.7707 10.3614 12.7267 9.73388C12.1394 9.38083 11.55 9.03021 10.96 8.68061C10.8076 8.59029 10.5455 8.3746 10.3449 8.36463C10.226 8.35873 10.4388 8.56371 10.515 8.64551C10.9592 9.12218 11.3858 9.60885 11.7976 10.1084C11.9031 10.2364 13.7451 12.2866 13.6297 12.3553C13.3373 12.5297 10.8254 10.5862 10.5805 10.4244C9.31131 9.58595 7.99922 8.79923 6.70668 7.99014C5.60941 7.30329 8.82797 9.46106 9.78869 10.2956C9.97484 10.4573 11.7566 11.8992 10.6721 11.1324C9.80911 10.5222 8.97319 9.94955 7.98922 9.49982C7.35959 9.21205 7.11885 9.04216 7.60969 9.67536C8.15359 10.377 8.57198 11.14 9.08853 11.8521C9.34093 12.2001 7.99869 11.6915 7.88452 11.6415C7.10817 11.3009 6.36466 10.903 5.60082 10.5414C4.94518 10.231 5.1748 10.2745 5.65972 10.6526C6.14961 11.0345 6.68783 11.4256 7.1451 11.8346C7.52504 12.1743 6.25045 11.301 5.8233 11.0095C4.89308 10.3747 3.94888 9.89772 2.75438 9.89772C2.69433 9.89772 3.14804 10.5657 3.28441 10.6877C3.49446 10.8755 3.60646 11.185 3.75555 11.425C4.10514 11.9877 4.5527 12.4974 4.90067 13.0575C5.37114 13.8148 5.92156 14.5392 6.34024 15.322C6.71161 16.0164 7.63076 18.1762 7.32178 17.4578C6.83514 16.3264 6.07133 15.198 5.46341 14.1108C5.11707 13.4914 4.71973 12.9227 4.34446 12.3261C4.01886 11.8085 3.79126 11.2083 3.28441 10.8457C3.08319 10.7017 2.86698 10.5568 2.6366 10.4478C2.11519 10.2009 2.35203 10.0499 2.87217 10.3658C4.4318 11.3132 5.99273 12.4199 7.34795 13.59C9.11499 15.1157 10.4899 16.9822 12.2818 18.4701C12.676 18.7975 12.0092 17.9531 11.9808 17.9025C10.0858 14.5339 9.06874 10.8144 7.58352 7.29967C6.8083 5.46515 5.87561 3.64557 4.42953 2.15037C4.35823 2.07665 3.64696 1.44377 3.72283 1.60034C3.83501 1.83184 4.07899 2.05568 4.24631 2.244C5.27458 3.40132 6.2315 4.59915 7.16473 5.81925C9.31901 8.63574 11.447 11.4675 13.6167 14.2746C13.7128 14.399 14.7868 15.6019 14.0813 14.9709C12.7604 13.7898 11.4818 12.5815 10.2075 11.3606C10.1189 11.2757 8.81134 10.2533 8.8137 10.2839C8.8407 10.634 9.21357 11.0617 9.37645 11.3606C9.76252 12.069 10.0832 12.7973 10.3842 13.5373C10.5846 14.0302 10.8213 14.5029 11.0385 14.9885C11.0978 15.121 11.1295 15.3623 10.9207 15.1289C9.37446 13.4005 8.40968 11.1568 7.1909 9.24235C6.67453 8.43123 5.89953 7.66514 5.4765 6.814C5.01139 5.87818 6.77088 8.50386 7.4003 9.35938C8.21334 10.4645 8.94814 11.6301 9.79523 12.7123C9.98558 12.9554 8.99662 12.203 8.87914 12.1154C8.6457 11.9415 8.04799 11.4452 7.72747 11.4191C7.68117 11.4153 8.16862 12.5728 8.19861 12.6362C8.41829 13.1005 9.29951 14.3153 8.82679 14.0406C8.4752 13.8362 8.20249 13.2617 8.0023 12.9639C7.50023 12.217 7.01755 11.4587 6.57581 10.6818C6.34279 10.272 5.59428 9.40102 5.59428 8.91467C5.59428 8.78224 5.81605 9.09344 5.90183 9.20139C6.28381 9.68215 6.62197 10.1895 6.9946 10.676C7.45785 11.2808 9.02039 12.9732 8.44072 12.4548C7.86726 11.942 7.4751 11.3076 7.01423 10.7169C6.94562 10.629 6.3669 9.86339 6.6936 10.3892C7.21899 11.2349 7.6267 12.1016 8.05465 12.9873C8.29008 13.4745 8.408 13.7813 8.408 14.298C8.408 14.6852 8.27456 14.7427 7.87798 14.7427C7.74479 14.7427 7.11099 14.976 7.23017 14.7895C7.40572 14.5148 7.42329 14.1905 7.51808 13.8884C8.19131 11.7427 9.28416 9.66712 10.3842 7.67416C10.8706 6.7929 11.6662 5.79065 11.9153 4.81864C12.0181 4.41757 11.8516 4.17358 11.5882 3.87071C11.332 3.57621 10.9877 2.73552 10.4692 2.73552C10.1257 2.73552 10.1653 2.82915 10.3972 3.08661C11.6556 4.4835 13.2447 5.73303 14.6898 6.97199C15.557 7.71547 16.4722 8.42911 17.3988 9.11362C17.8493 9.44637 17.5023 9.35347 17.1371 9.19554C15.5816 8.52297 13.9806 7.95969 12.3734 7.39329C11.6944 7.15401 11.0164 6.91176 10.3449 6.65601C10.1649 6.58745 9.63674 6.45392 9.54658 6.25811C9.48658 6.1278 9.86514 6.25793 10.0177 6.29321C10.9947 6.51916 11.9273 6.90094 12.838 7.28211C14.4829 7.97066 16.0566 8.78355 17.7325 9.41205C18.5351 9.713 16.798 8.48851 16.6856 8.39974C15.4778 7.44594 14.3185 6.41577 13.0277 5.55008C11.6916 4.65398 13.4482 6.42562 13.6559 6.71452C14.671 8.12648 10.7299 4.60121 9.40262 3.41429C8.67614 2.76465 9.74221 3.37333 10.0439 3.54302C11.1143 4.14514 12.1904 4.74234 13.2764 5.32187C14.0859 5.75387 12.1405 5.36868 11.8237 5.36868" stroke="white" stroke-width="3" stroke-linecap="round"/>
</svg>
