<svg width="8" height="11" viewBox="0 0 8 11" fill="none" xmlns="http://www.w3.org/2000/svg">
<path d="M1.27686 1.32635C1.48117 1.63329 1.73553 1.93504 1.99924 2.20033C2.42486 2.62851 2.75891 3.15594 3.14655 3.61473C3.45184 3.97605 3.72244 4.36094 4.0389 4.71669C4.22215 4.9227 4.3715 5.15011 4.55826 5.35423C4.77555 5.59171 5.05002 5.82395 5.22871 6.08465C5.61162 6.64333 6.29579 7.09182 6.42795 7.7566C6.47437 7.99005 6.516 8.31333 6.40907 8.53768C6.37324 8.61285 6.16787 8.90715 6.03607 8.84167C5.78145 8.71518 5.60606 8.19142 5.51671 7.9677C5.44706 7.79331 5.36763 7.62839 5.35619 7.44416C5.34595 7.27941 5.19784 7.11648 5.18621 6.95018C5.17021 6.72116 5.0236 6.33847 4.89821 6.1142C4.75634 5.86047 4.73086 5.54882 4.6338 5.27823C4.54302 5.02512 4.50531 4.76351 4.4119 4.50981C4.12366 3.727 3.70646 2.98328 3.31652 2.23833" stroke="white" stroke-width="3"/>
</svg>
