<svg width="10" height="8" viewBox="0 0 10 8" fill="none" xmlns="http://www.w3.org/2000/svg">
<path d="M8.81425 6.54275C8.53074 6.38817 8.25384 6.22964 7.97868 6.06876C7.73937 5.92884 7.5135 5.82644 7.25907 5.69846C6.98296 5.55957 6.67103 5.40365 6.36277 5.33474C5.95119 5.24272 5.57206 5.03868 5.18303 4.89695C4.47427 4.63873 3.75387 4.17165 3.23215 3.68235C2.88716 3.3588 2.61492 2.98626 2.43523 2.57308C2.39408 2.47844 2.34872 2.30027 2.28064 2.22417C2.14535 2.07294 2.50708 2.25671 2.56039 2.27684C2.75575 2.3506 2.9181 2.48126 3.0978 2.57308C3.14003 2.59466 3.28172 2.69884 3.31497 2.73601C3.37526 2.8034 3.48703 2.83227 3.55423 2.89237C3.67191 2.9976 3.82949 3.12242 3.97754 3.18861C4.17715 3.27786 4.33377 3.45434 4.52231 3.55069C4.71546 3.64938 4.90918 3.79891 5.07077 3.9358C5.25931 4.09553 5.46761 4.23143 5.65051 4.39498C6.03008 4.73441 6.41954 5.05305 6.79343 5.3874C6.97672 5.5513 7.14919 5.78546 7.37317 5.91899C7.60735 6.0586 7.81503 6.31403 8.08543 6.39463" stroke="white" stroke-width="3"/>
</svg>
