<svg width="71" height="97" viewBox="0 0 71 97" fill="none" xmlns="http://www.w3.org/2000/svg">
<path d="M6.18397 91.233C6.18397 85.4655 6.18397 79.6979 6.18397 73.9304C6.18397 66.7304 5.78818 59.4424 7.05041 52.2932C9.14153 40.4492 15.3361 27.8776 24.2059 18.2869C30.733 11.2293 39.2275 5.713 50.2424 5.03678C57.4726 4.59291 62.022 8.21153 64.5819 13.4591C66.5079 17.4071 65.9523 22.2861 65.8382 26.4625C65.771 28.9226 64.1562 31.0411 63.3039 33.3342C62.2771 36.0969 60.8585 38.8496 59.2966 41.4394C57.1588 44.9843 54.8854 48.2314 52.1918 51.5179C50.2513 53.8857 48.771 56.7986 46.3434 58.883C42.7328 61.9832 39.9396 65.6779 36.2061 68.7149C33.981 70.5248 31.842 72.315 29.4912 74.0361C26.8564 75.965 24.7681 78.5961 22.1698 80.7669C19.965 82.6088 17.4302 83.9878 15.2382 85.7709C13.6055 87.0991 10.9248 88.6143 8.91325 89.5768C7.67568 90.1689 6.53955 91.8301 5.40417 90.5987" stroke="#686868" stroke-width="10" stroke-linecap="round"/>
</svg>
